# xmcd
#
# Track frame offsets:
#	183
#	17883
#	32985
#	45515
#	62608
#	81605
#	93865
#	109683
#	121845
#	141818
#	160575
#	171333
#	194610
#
# Disc length: 2789 seconds
#
# Revision: 0
# Processed by: cddbd v1.5PL3 Copyright (c) Steve Scherf et al.
# Submitted via: EasyCDDAExtractor 4.6.0.1
#
DISCID=ac0ae30d
DTITLE=The Producers - Aint No Love in the World
DYEAR=1992
DGENRE=Blues
TTITLE0=Aint no love in the world
TTITLE1=Big Blue Sky
TTITLE2=Be Careful
TTITLE3=Mississippi
TTITLE4=Out Tonight
TTITLE5=Rolling and Tumbling
TTITLE6=Blues in the Morning
TTITLE7=Jumping the Blues
TTITLE8=Little Red Rooster
TTITLE9=Crossroads
TTITLE10=Stood Up
TTITLE11=A.M. Blues
TTITLE12=Jesus on the Mainline
EXTD=
EXTT0=
EXTT1=
EXTT2=
EXTT3=
EXTT4=
EXTT5=
EXTT6=
EXTT7=
EXTT8=
EXTT9=
EXTT10=
EXTT11=
EXTT12=
PLAYORDER=
